# xmcd
#
# Track frame offsets:
#	150
#	35343
#	71890
#	97953
#	111293
#	133625
#	155233
#	174817
#	211018
#
# Disc length: 2994 seconds
#
# Revision: 0
# Processed by: cddbd v1.5.2PL0 Copyright (c) Steve Scherf et al.
# Submitted via: audiograbber 1.83.01
#
DISCID=760bb009
DTITLE=Grateful Dead - 85-06-30 Merriweather Post Pavilion, Columbia MD
DYEAR=1900
DGENRE=
TTITLE0=Mississippi Half-Step
TTITLE1=CC Rider
TTITLE2=Brown Eyed Women
TTITLE3=Mama Tried
TTITLE4=Mexicali Blues
TTITLE5=Keep On Growing
TTITLE6=Big Railroad Blues
TTITLE7=Looks Like Rain
TTITLE8=Don't Ease Me In
EXTD=
EXTT0=
EXTT1=
EXTT2=
EXTT3=
EXTT4=
EXTT5=
EXTT6=
EXTT7=
EXTT8=
PLAYORDER=
